<?xml version="1.0" encoding="UTF-8" standalone="no"?>
<!DOCTYPE svg PUBLIC "-//W3C//DTD SVG 1.1//EN" "http://www.w3.org/Graphics/SVG/1.1/DTD/svg11.dtd">
<svg width="100%" height="100%" viewBox="0 0 684 792" version="1.1" xmlns="http://www.w3.org/2000/svg" xmlns:xlink="http://www.w3.org/1999/xlink" xml:space="preserve" style="fill-rule:evenodd;clip-rule:evenodd;stroke-linecap:round;stroke-linejoin:round;stroke-miterlimit:10;">
    <rect x="0" y="2.09" width="684" height="391.81" style="fill:white;fill-rule:nonzero;stroke:white;stroke-width:1.07px;"/>
    <path d="M25.97,326.18L681.17,326.18" style="fill:none;stroke:black;stroke-width:0.53px;stroke-linecap:butt;"/>
    <path d="M342.65,389.92L342.65,30.99" style="fill:none;stroke:black;stroke-width:0.53px;stroke-linecap:butt;"/>
    <path d="M342.65,326.18L91.18,163.84" style="fill:none;stroke:black;stroke-opacity:0.929412;stroke-width:1.07px;stroke-linecap:butt;"/>
    <path d="M98.02,166.04L91.18,163.84L96,169.16" style="fill:none;stroke:black;stroke-opacity:0.929412;stroke-width:1.07px;stroke-linecap:butt;"/>
    <path d="M342.65,326.18L260.6,82.74" style="fill:none;stroke:black;stroke-opacity:0.776471;stroke-width:1.07px;stroke-linecap:butt;"/>
    <path d="M264.57,88.72L260.6,82.74L261.05,89.91" style="fill:none;stroke:black;stroke-opacity:0.776471;stroke-width:1.07px;stroke-linecap:butt;"/>
    <path d="M342.65,326.18L325.57,191.44" style="fill:none;stroke:black;stroke-opacity:0.52549;stroke-width:1.07px;stroke-linecap:butt;"/>
    <path d="M328.28,198.08L325.57,191.44L324.59,198.55" style="fill:none;stroke:black;stroke-opacity:0.52549;stroke-width:1.07px;stroke-linecap:butt;"/>
    <path d="M342.65,326.18L495.49,199.37" style="fill:none;stroke:black;stroke-opacity:0.737255;stroke-width:1.07px;stroke-linecap:butt;"/>
    <path d="M491.34,205.23L495.49,199.37L488.97,202.37" style="fill:none;stroke:black;stroke-opacity:0.737255;stroke-width:1.07px;stroke-linecap:butt;"/>
    <path d="M342.65,326.18L615.95,216.23" style="fill:none;stroke:black;stroke-opacity:0.909804;stroke-width:1.07px;stroke-linecap:butt;"/>
    <path d="M610.21,220.54L615.95,216.23L608.82,217.09" style="fill:none;stroke:black;stroke-opacity:0.909804;stroke-width:1.07px;stroke-linecap:butt;"/>
    <path d="M342.65,326.18L449.5,285.91" style="fill:none;stroke:black;stroke-opacity:0.545098;stroke-width:1.07px;stroke-linecap:butt;"/>
    <path d="M443.67,290.09L449.5,285.91L442.36,286.62" style="fill:none;stroke:black;stroke-opacity:0.545098;stroke-width:1.07px;stroke-linecap:butt;"/>
    <path d="M342.65,326.18L330.58,338.17" style="fill:none;stroke:black;stroke-opacity:0.305882;stroke-width:1.07px;stroke-linecap:butt;"/>
    <path d="M334.19,331.97L330.58,338.17L336.81,334.6" style="fill:none;stroke:black;stroke-opacity:0.305882;stroke-width:1.07px;stroke-linecap:butt;"/>
    <path d="M342.65,326.18L603.36,268.43" style="fill:none;stroke:black;stroke-opacity:0.968627;stroke-width:1.07px;stroke-linecap:butt;"/>
    <path d="M596.99,271.74L603.36,268.43L596.18,268.12" style="fill:none;stroke:black;stroke-opacity:0.968627;stroke-width:1.07px;stroke-linecap:butt;"/>
    <path d="M342.65,326.18L132.84,189.13" style="fill:none;stroke:black;stroke-opacity:0.941176;stroke-width:1.07px;stroke-linecap:butt;"/>
    <path d="M139.66,191.36L132.84,189.13L137.63,194.48" style="fill:none;stroke:black;stroke-opacity:0.941176;stroke-width:1.07px;stroke-linecap:butt;"/>
    <path d="M342.65,326.18L271.78,102.51" style="fill:none;stroke:black;stroke-opacity:0.8;stroke-width:1.07px;stroke-linecap:butt;"/>
    <path d="M275.65,108.56L271.78,102.51L272.1,109.68" style="fill:none;stroke:black;stroke-opacity:0.8;stroke-width:1.07px;stroke-linecap:butt;"/>
    <path d="M342.65,326.18L336.85,274.96" style="fill:none;stroke:black;stroke-opacity:0.52549;stroke-width:1.07px;stroke-linecap:butt;"/>
    <path d="M339.48,281.64L336.85,274.96L335.78,282.06" style="fill:none;stroke:black;stroke-opacity:0.52549;stroke-width:1.07px;stroke-linecap:butt;"/>
    <path d="M342.65,326.18L538.65,288.9" style="fill:none;stroke:black;stroke-opacity:0.898039;stroke-width:1.07px;stroke-linecap:butt;"/>
    <path d="M532.18,292.02L538.65,288.9L531.49,288.37" style="fill:none;stroke:black;stroke-opacity:0.898039;stroke-width:1.07px;stroke-linecap:butt;"/>
    <path d="M342.65,326.18L549.64,238.14" style="fill:none;stroke:black;stroke-opacity:0.901961;stroke-width:1.07px;stroke-linecap:butt;"/>
    <path d="M543.99,242.56L549.64,238.14L542.53,239.14" style="fill:none;stroke:black;stroke-opacity:0.901961;stroke-width:1.07px;stroke-linecap:butt;"/>
    <path d="M342.65,326.18L478.79,226.7" style="fill:none;stroke:black;stroke-opacity:0.894118;stroke-width:1.07px;stroke-linecap:butt;"/>
    <path d="M474.29,232.29L478.79,226.7L472.1,229.29" style="fill:none;stroke:black;stroke-opacity:0.894118;stroke-width:1.07px;stroke-linecap:butt;"/>
    <g transform="matrix(1,0,0,1,-1.92323,-0.680742)">
        <text x="35.29px" y="159.97px" style="font-family:'Helvetica';font-size:18px;fill-opacity:0.929412;">Mode</text>
        <text x="80.316px" y="159.97px" style="font-family:'Helvetica';font-size:18px;fill-opacity:0.929412;">r</text>
        <text x="86.111px" y="159.97px" style="font-family:'Helvetica';font-size:18px;fill-opacity:0.929412;">ate</text>
        <text x="116.134px" y="159.97px" style="font-family:'Helvetica';font-size:18px;fill-opacity:0.929412;">w</text>
        <text x="128.883px" y="159.97px" style="font-family:'Helvetica';font-size:18px;fill-opacity:0.929412;">a</text>
        <text x="138.894px" y="159.97px" style="font-family:'Helvetica';font-size:18px;fill-opacity:0.929412;">r</text>
        <text x="145.338px" y="159.97px" style="font-family:'Helvetica';font-size:18px;fill-opacity:0.929412;">ming</text>
    </g>
    <g transform="matrix(1,0,0,1,-2.78,-0.359668)">
        <text x="185.05px" y="55.04px" style="font-family:'Helvetica';font-size:17px;fill-opacity:0.776471;">Mode</text>
        <text x="227.575px" y="55.04px" style="font-family:'Helvetica';font-size:17px;fill-opacity:0.776471;">r</text>
        <text x="233.036px" y="55.04px" style="font-family:'Helvetica';font-size:17px;fill-opacity:0.776471;">ate</text>
        <text x="176.46px" y="72.19px" style="font-family:'Helvetica';font-size:17px;fill-opacity:0.776471;">acidiﬁcation</text>
    </g>
    <g transform="matrix(1,0,0,1,-20.6645,4.35953)">
        <text x="317.416px" y="167.43px" style="font-family:'Helvetica';font-size:14px;fill-opacity:0.52549;">Mode</text>
        <text x="352.437px" y="167.43px" style="font-family:'Helvetica';font-size:14px;fill-opacity:0.52549;">r</text>
        <text x="356.949px" y="167.43px" style="font-family:'Helvetica';font-size:14px;fill-opacity:0.52549;">ate sea</text>
        <text x="332.799px" y="181.43px" style="font-family:'Helvetica';font-size:14px;fill-opacity:0.52549;">l</text>
        <text x="335.909px" y="181.43px" style="font-family:'Helvetica';font-size:14px;fill-opacity:0.52549;">e</text>
        <text x="343.295px" y="181.43px" style="font-family:'Helvetica';font-size:14px;fill-opacity:0.52549;">v</text>
        <text x="349.945px" y="181.43px" style="font-family:'Helvetica';font-size:14px;fill-opacity:0.52549;">el</text>
        <text x="364.732px" y="181.43px" style="font-family:'Helvetica';font-size:14px;fill-opacity:0.52549;">r</text>
        <text x="369.594px" y="181.43px" style="font-family:'Helvetica';font-size:14px;fill-opacity:0.52549;">ise</text>
    </g>
    <g transform="matrix(1,0,0,1,0.12,7.02153)">
        <text x="479.108px" y="172.19px" style="font-family:'Helvetica';font-size:16px;fill-opacity:0.737255;">Du</text>
        <text x="499.561px" y="172.19px" style="font-family:'Helvetica';font-size:16px;fill-opacity:0.737255;">r</text>
        <text x="504.74px" y="172.19px" style="font-family:'Helvetica';font-size:16px;fill-opacity:0.737255;">ation</text>
        <text x="467.717px" y="188.19px" style="font-family:'Helvetica';font-size:16px;fill-opacity:0.737255;">of the ef</text>
        <text x="525.537px" y="188.19px" style="font-family:'Helvetica';font-size:16px;fill-opacity:0.737255;">f</text>
        <text x="529.483px" y="188.19px" style="font-family:'Helvetica';font-size:16px;fill-opacity:0.737255;">ect</text>
    </g>
    <g>
        <text x="568.68px" y="186.96px" style="font-family:'Helvetica';font-size:18px;fill-opacity:0.909804;">T</text>
        <text x="577.525px" y="186.96px" style="font-family:'Helvetica';font-size:18px;fill-opacity:0.909804;">echnological</text>
        <text x="584.1px" y="205.63px" style="font-family:'Helvetica';font-size:18px;fill-opacity:0.909804;">readiness</text>
    </g>
    <g transform="matrix(1,0,0,1,66.62,-18.1339)">
        <text x="377.84px" y="282.94px" style="font-family:'Helvetica';font-size:14px;fill-opacity:0.545098;">Lead time</text>
        <text x="371.22px" y="296.71px" style="font-family:'Helvetica';font-size:14px;fill-opacity:0.545098;">until full pot.</text>
        <text x="384.66px" y="310.47px" style="font-family:'Helvetica';font-size:14px;fill-opacity:0.545098;">ef</text>
        <text x="396.336px" y="310.47px" style="font-family:'Helvetica';font-size:14px;fill-opacity:0.545098;">f</text>
        <text x="399.825px" y="310.47px" style="font-family:'Helvetica';font-size:14px;fill-opacity:0.545098;">ectiv.</text>
    </g>
    <g>
        <text x="280.94px" y="348.47px" style="font-family:'Helvetica';font-size:9px;fill-opacity:0.305882;">Cost ef</text>
        <text x="309.452px" y="348.47px" style="font-family:'Helvetica';font-size:9px;fill-opacity:0.305882;">f</text>
        <text x="311.702px" y="348.47px" style="font-family:'Helvetica';font-size:9px;fill-opacity:0.305882;">ecti</text>
        <text x="325.708px" y="348.47px" style="font-family:'Helvetica';font-size:9px;fill-opacity:0.305882;">v</text>
        <text x="329.958px" y="348.47px" style="font-family:'Helvetica';font-size:9px;fill-opacity:0.305882;">eness</text>
    </g>
    <g>
        <text x="569.56px" y="264.59px" style="font-family:'Helvetica';font-size:18px;fill-opacity:0.968627;">G</text>
        <text x="583.561px" y="264.59px" style="font-family:'Helvetica';font-size:18px;fill-opacity:0.968627;">o</text>
        <text x="593.322px" y="264.59px" style="font-family:'Helvetica';font-size:18px;fill-opacity:0.968627;">v</text>
        <text x="601.872px" y="264.59px" style="font-family:'Helvetica';font-size:18px;fill-opacity:0.968627;">e</text>
        <text x="611.882px" y="264.59px" style="font-family:'Helvetica';font-size:18px;fill-opacity:0.968627;">r</text>
        <text x="618.327px" y="264.59px" style="font-family:'Helvetica';font-size:18px;fill-opacity:0.968627;">nability</text>
    </g>
    <g transform="matrix(1,0,0,1,25.9507,-21.4046)">
        <text x="105.16px" y="205.61px" style="font-family:'Helvetica';font-size:18px;fill-opacity:0.898039;">Reduce impact of</text>
        <text x="141.186px" y="223.61px" style="font-family:'Helvetica';font-size:18px;fill-opacity:0.898039;">warming</text>
    </g>
    <g transform="matrix(1,0,0,1,21.7602,-20.3516)">
        <text x="245.54px" y="118.25px" style="font-family:'Helvetica';font-size:17px;fill-opacity:0.8;">Reduce impact of</text>
        <text x="267.28px" y="135.67px" style="font-family:'Helvetica';font-size:17px;fill-opacity:0.8;">acidiﬁcation</text>
    </g>
    <g transform="matrix(1,0,0,1,11.0452,4.13199)">
        <text x="247.91px" y="250.92px" style="font-family:'Helvetica';font-size:14px;fill-opacity:0.52549;">Reduce impact of</text>
        <text x="261.81px" y="265.33px" style="font-family:'Helvetica';font-size:14px;fill-opacity:0.52549;">sea l</text>
        <text x="291.382px" y="265.33px" style="font-family:'Helvetica';font-size:14px;fill-opacity:0.52549;">e</text>
        <text x="298.718px" y="265.33px" style="font-family:'Helvetica';font-size:14px;fill-opacity:0.52549;">v</text>
        <text x="305.368px" y="265.33px" style="font-family:'Helvetica';font-size:14px;fill-opacity:0.52549;">el</text>
        <text x="320.155px" y="265.33px" style="font-family:'Helvetica';font-size:14px;fill-opacity:0.52549;">r</text>
        <text x="325.067px" y="265.33px" style="font-family:'Helvetica';font-size:14px;fill-opacity:0.52549;">ise</text>
    </g>
    <g transform="matrix(1,0,0,1,47.0267,0.0444141)">
        <text x="453.14px" y="312.12px" style="font-family:'Helvetica';font-size:18px;fill-opacity:0.898039;">Reduce impacts of</text>
        <text x="477.75px" y="329.69px" style="font-family:'Helvetica';font-size:18px;fill-opacity:0.898039;">other d</text>
        <text x="533.789px" y="329.69px" style="font-family:'Helvetica';font-size:18px;fill-opacity:0.898039;">r</text>
        <text x="540.033px" y="329.69px" style="font-family:'Helvetica';font-size:18px;fill-opacity:0.898039;">i</text>
        <text x="544.032px" y="329.69px" style="font-family:'Helvetica';font-size:18px;fill-opacity:0.898039;">v</text>
        <text x="552.582px" y="329.69px" style="font-family:'Helvetica';font-size:18px;fill-opacity:0.898039;">ers</text>
    </g>
    <g transform="matrix(1,0,0,1,30.8458,-28.4004)">
        <text x="465.59px" y="254.74px" style="font-family:'Helvetica';font-size:18px;fill-opacity:0.901961;">Co-beneﬁts</text>
    </g>
    <g transform="matrix(1,0,0,1,6.76865,-38.0343)">
        <text x="386.37px" y="240.13px" style="font-family:'Helvetica';font-size:18px;fill-opacity:0.894118;">Lack of</text>
        <text x="372.37px" y="257.62px" style="font-family:'Helvetica';font-size:18px;fill-opacity:0.894118;">disbeneﬁts</text>
    </g>
    <g transform="matrix(1,0,0,1,0,-0.44)">
        <path d="M549.64,238.14L549.64,229.495" style="fill:none;stroke:rgb(102,102,102);stroke-opacity:0.341176;stroke-width:0.75px;stroke-miterlimit:1.5;"/>
    </g>
    <g transform="matrix(1,0,0,1,0,0.079541)">
        <path d="M479.3,226.211L466.94,218.385" style="fill:none;stroke:rgb(102,102,102);stroke-opacity:0.341176;stroke-width:0.75px;stroke-miterlimit:1.5;"/>
    </g>
    <g transform="matrix(1,0,0,1,5.62813,-0.883438)">
        <text x="658.87px" y="49.35px" style="font-family:'Helvetica';font-size:16px;">A</text>
    </g>
    <clipPath id="_clip1">
        <rect x="25.97" y="30.99" width="655.2" height="358.93"/>
    </clipPath>
    <g clip-path="url(#_clip1)">
        <rect x="25.97" y="30.99" width="655.2" height="358.93" style="fill:none;stroke:black;stroke-width:1.07px;"/>
    </g>
    <g transform="matrix(0,-1,1,0,2,0)">
        <text x="-256.25px" y="11.49px" style="font-family:'Helvetica';font-size:16px;">PC2 (23.6%)</text>
    </g>
    <rect x="205.76" y="2.1" width="295.61" height="17.56" style="fill:white;fill-rule:nonzero;"/>
    <rect x="368.2" y="2.1" width="14.17" height="17.56" style="fill:white;fill-rule:nonzero;"/>
    <rect x="411.61" y="2.1" width="15.9" height="17.56" style="fill:white;fill-rule:nonzero;"/>
    <clipPath id="_clip2">
        <rect x="0" y="399.03" width="684" height="389.95"/>
    </clipPath>
    <g clip-path="url(#_clip2)">
        <rect x="0" y="399.03" width="684" height="389.95" style="fill:white;fill-rule:nonzero;stroke:white;stroke-width:1.07px;"/>
    </g>
    <text x="205.76px" y="16.62px" style="font-family:'Helvetica';font-size:16px;">Representativity</text>
    <g>
        <text x="341.13px" y="15.54px" style="font-family:'Helvetica';font-size:13px;">0.00</text>
        <text x="384.54px" y="15.54px" style="font-family:'Helvetica';font-size:13px;">0.25</text>
    </g>
    <text x="429.67px" y="15.54px" style="font-family:'Helvetica';font-size:13px;">0.50</text>
    <text x="476.46px" y="15.54px" style="font-family:'Helvetica';font-size:13px;">0.75</text>
    <rect x="25.97" y="399.02" width="655.2" height="363.99" style="fill:white;fill-rule:nonzero;"/>
    <path d="M25.97,566.69L681.17,566.69" style="fill:none;stroke:black;stroke-width:0.53px;stroke-linecap:butt;"/>
    <path d="M342.26,763.01L342.26,399.02" style="fill:none;stroke:black;stroke-width:0.53px;stroke-linecap:butt;"/>
    <path d="M144.07,582.95C144.07,581.29 145.43,579.93 147.09,579.93C148.75,579.93 150.11,581.29 150.11,582.95C150.11,584.61 148.75,585.97 147.09,585.97C145.43,585.97 144.07,584.61 144.07,582.95" style="fill:rgb(27,158,119);fill-opacity:0.882353;fill-rule:nonzero;"/>
    <path d="M173.68,428.95C173.68,427.29 175.04,425.93 176.7,425.93C178.36,425.93 179.72,427.29 179.72,428.95C179.72,430.62 178.36,431.98 176.7,431.98C175.04,431.98 173.68,430.62 173.68,428.95" style="fill:rgb(27,158,119);fill-rule:nonzero;"/>
    <path d="M241.2,595.11C241.2,593.45 242.56,592.09 244.22,592.09C245.88,592.09 247.24,593.45 247.24,595.11C247.24,596.77 245.88,598.13 244.22,598.13C242.56,598.13 241.2,596.77 241.2,595.11" style="fill:rgb(117,112,179);fill-opacity:0.47451;fill-rule:nonzero;"/>
    <path d="M319.32,659.27C319.32,657.61 320.68,656.25 322.34,656.25C324.01,656.25 325.37,657.61 325.37,659.27C325.37,660.93 324.01,662.29 322.34,662.29C320.68,662.29 319.32,660.93 319.32,659.27" style="fill:rgb(117,112,179);fill-opacity:0.65098;fill-rule:nonzero;"/>
    <path d="M270.13,746.46C270.13,744.8 271.49,743.44 273.15,743.44C274.81,743.44 276.17,744.8 276.17,746.46C276.17,748.13 274.81,749.49 273.15,749.49C271.49,749.49 270.13,748.13 270.13,746.46" style="fill:rgb(117,112,179);fill-opacity:0.882353;fill-rule:nonzero;"/>
    <path d="M482.49,561.42C482.49,559.76 483.85,558.4 485.51,558.4C487.17,558.4 488.53,559.76 488.53,561.42C488.53,563.08 487.17,564.44 485.51,564.44C483.85,564.44 482.49,563.08 482.49,561.42" style="fill:rgb(217,95,2);fill-opacity:0.956863;fill-rule:nonzero;"/>
    <path d="M291.08,676.88C291.08,675.22 292.44,673.86 294.1,673.86C295.76,673.86 297.12,675.22 297.12,676.88C297.12,678.55 295.76,679.91 294.1,679.91C292.44,679.91 291.08,678.55 291.08,676.88" style="fill:rgb(117,112,179);fill-opacity:0.745098;fill-rule:nonzero;"/>
    <path d="M187.16,545.13C187.16,543.47 188.52,542.11 190.18,542.11C191.85,542.11 193.21,543.47 193.21,545.13C193.21,546.79 191.85,548.15 190.18,548.15C188.52,548.15 187.16,546.79 187.16,545.13" style="fill:rgb(27,158,119);fill-opacity:0.960784;fill-rule:nonzero;"/>
    <path d="M384.44,527.4C384.44,525.74 385.8,524.38 387.46,524.38C389.12,524.38 390.48,525.74 390.48,527.4C390.48,529.06 389.12,530.42 387.46,530.42C385.8,530.42 384.44,529.06 384.44,527.4" style="fill:rgb(217,95,2);fill-opacity:0.439216;fill-rule:nonzero;"/>
    <path d="M460.89,500.16C460.89,498.49 462.25,497.13 463.92,497.13C465.58,497.13 466.94,498.49 466.94,500.16C466.94,501.82 465.58,503.18 463.92,503.18C462.25,503.18 460.89,501.82 460.89,500.16" style="fill:rgb(217,95,2);fill-opacity:0.815686;fill-rule:nonzero;"/>
    <path d="M489.35,494.84C489.35,493.18 490.71,491.82 492.37,491.82C494.03,491.82 495.39,493.18 495.39,494.84C495.39,496.5 494.03,497.86 492.37,497.86C490.71,497.86 489.35,496.5 489.35,494.84" style="fill:rgb(217,95,2);fill-opacity:0.803922;fill-rule:nonzero;"/>
    <path d="M515.71,665.86C515.71,664.2 517.07,662.84 518.74,662.84C520.4,662.84 521.76,664.2 521.76,665.86C521.76,667.52 520.4,668.88 518.74,668.88C517.07,668.88 515.71,667.52 515.71,665.86" style="fill:rgb(217,95,2);fill-opacity:0.811765;fill-rule:nonzero;"/>
    <path d="M263.23,415.57C263.23,413.91 264.59,412.55 266.25,412.55C267.91,412.55 269.27,413.91 269.27,415.57C269.27,417.23 267.91,418.59 266.25,418.59C264.59,418.59 263.23,417.23 263.23,415.57" style="fill:rgb(27,158,119);fill-opacity:0.870588;fill-rule:nonzero;"/>
    <path d="M396.95,620.12C396.95,618.46 398.31,617.1 399.97,617.1C401.63,617.1 402.99,618.46 402.99,620.12C402.99,621.78 401.63,623.14 399.97,623.14C398.31,623.14 396.95,621.78 396.95,620.12" style="fill:rgb(217,95,2);fill-opacity:0.509804;fill-rule:nonzero;"/>
    <path d="M468.84,480.19C468.84,478.53 470.2,477.17 471.86,477.17C473.53,477.17 474.89,478.53 474.89,480.19C474.89,481.85 473.53,483.21 471.86,483.21C470.2,483.21 468.84,481.85 468.84,480.19" style="fill:rgb(217,95,2);fill-opacity:0.933333;fill-rule:nonzero;"/>
    <g transform="matrix(1,0,0,1,-3.75742,19.0462)">
        <text x="29.57px" y="579.35px" style="font-family:'Helvetica';font-size:18px;fill:rgb(27,158,119);fill-opacity:0.882353;">Albedo enhancement</text>
    </g>
    <g transform="matrix(1,0,0,1,17.6142,3.57305)">
        <text x="118.43px" y="441.19px" style="font-family:'Helvetica';font-size:12px;fill:rgb(27,158,119);">Alkalinization (g)</text>
    </g>
    <g transform="matrix(1,0,0,1,-2.49363,0.911328)">
        <text x="214.02px" y="608.5px" style="font-family:'Helvetica';font-size:13px;fill:rgb(117,112,179);fill-opacity:0.47451;">Alkalinization (l)</text>
    </g>
    <g transform="matrix(1,0,0,1,-16.6292,-1.85988)">
        <text x="275.35px" y="655.52px" style="font-family:'Helvetica';font-size:16px;fill:rgb(117,112,179);fill-opacity:0.65098;">Assisted</text>
        <text x="340.264px" y="655.52px" style="font-family:'Helvetica';font-size:16px;fill:rgb(117,112,179);fill-opacity:0.65098;">e</text>
        <text x="348.663px" y="655.52px" style="font-family:'Helvetica';font-size:16px;fill:rgb(117,112,179);fill-opacity:0.65098;">v</text>
        <text x="356.263px" y="655.52px" style="font-family:'Helvetica';font-size:16px;fill:rgb(117,112,179);fill-opacity:0.65098;">olution</text>
    </g>
    <g transform="matrix(1,0,0,1,-24.3829,-5.48172)">
        <text x="220.87px" y="742.6px" style="font-family:'Helvetica';font-size:18px;fill:rgb(117,112,179);fill-opacity:0.882353;">Cloud b</text>
        <text x="282.912px" y="742.6px" style="font-family:'Helvetica';font-size:18px;fill:rgb(117,112,179);fill-opacity:0.882353;">r</text>
        <text x="289.156px" y="742.6px" style="font-family:'Helvetica';font-size:18px;fill:rgb(117,112,179);fill-opacity:0.882353;">ightening</text>
    </g>
    <g transform="matrix(1,0,0,1,36.2269,5.57613)">
        <text x="358.31px" y="578.11px" style="font-family:'Helvetica';font-size:18px;fill:rgb(217,95,2);fill-opacity:0.956863;">Eliminating</text>
        <text x="451.351px" y="578.11px" style="font-family:'Helvetica';font-size:18px;fill:rgb(217,95,2);fill-opacity:0.956863;">o</text>
        <text x="461.062px" y="578.11px" style="font-family:'Helvetica';font-size:18px;fill:rgb(217,95,2);fill-opacity:0.956863;">v</text>
        <text x="469.612px" y="578.11px" style="font-family:'Helvetica';font-size:18px;fill:rgb(217,95,2);fill-opacity:0.956863;">er</text>
        <text x="485.617px" y="578.11px" style="font-family:'Helvetica';font-size:18px;fill:rgb(217,95,2);fill-opacity:0.956863;">e</text>
        <text x="495.077px" y="578.11px" style="font-family:'Helvetica';font-size:18px;fill:rgb(217,95,2);fill-opacity:0.956863;">xploitation</text>
    </g>
    <g transform="matrix(1,0,0,1,16.8372,3.79834)">
        <text x="235.95px" y="691.99px" style="font-family:'Helvetica';font-size:16px;fill:rgb(117,112,179);fill-opacity:0.745098;">F</text>
        <text x="245.223px" y="691.99px" style="font-family:'Helvetica';font-size:16px;fill:rgb(117,112,179);fill-opacity:0.745098;">e</text>
        <text x="254.122px" y="691.99px" style="font-family:'Helvetica';font-size:16px;fill:rgb(117,112,179);fill-opacity:0.745098;">r</text>
        <text x="260.1px" y="691.99px" style="font-family:'Helvetica';font-size:16px;fill:rgb(117,112,179);fill-opacity:0.745098;">tilization</text>
    </g>
    <g transform="matrix(1,0,0,1,-20.7657,-11.5554)">
        <text x="141.36px" y="561.73px" style="font-family:'Helvetica';font-size:18px;fill:rgb(27,158,119);fill-opacity:0.960784;">Hyb</text>
        <text x="173.37px" y="561.73px" style="font-family:'Helvetica';font-size:18px;fill:rgb(27,158,119);fill-opacity:0.960784;">r</text>
        <text x="179.614px" y="561.73px" style="font-family:'Helvetica';font-size:18px;fill:rgb(27,158,119);fill-opacity:0.960784;">ids</text>
    </g>
    <g>
        <text x="309.8px" y="540.46px" style="font-family:'Helvetica';font-size:13px;fill:rgb(217,95,2);fill-opacity:0.439216;">Maintaining</text>
        <text x="379.897px" y="540.46px" style="font-family:'Helvetica';font-size:13px;fill:rgb(217,95,2);fill-opacity:0.439216;">h</text>
        <text x="386.727px" y="540.46px" style="font-family:'Helvetica';font-size:13px;fill:rgb(217,95,2);fill-opacity:0.439216;">ydrology</text>
    </g>
    <g transform="matrix(1,0,0,1,-10.23,-0.521426)">
        <text x="373.3px" y="517.66px" style="font-family:'Helvetica';font-size:17px;fill:rgb(217,95,2);fill-opacity:0.815686;">P</text>
        <text x="383.789px" y="517.66px" style="font-family:'Helvetica';font-size:17px;fill:rgb(217,95,2);fill-opacity:0.815686;">ollution reduction</text>
    </g>
    <g transform="matrix(1,0,0,1,3.51318,3.27506)">
        <text x="496.01px" y="497.5px" style="font-family:'Helvetica';font-size:17px;fill:rgb(217,95,2);fill-opacity:0.803922;">Protection</text>
    </g>
    <g transform="matrix(1,0,0,1,21.6179,-0.259795)">
        <text x="412.6px" y="681.98px" style="font-family:'Helvetica';font-size:17px;fill:rgb(217,95,2);fill-opacity:0.811765;">Relocation, Resto</text>
        <text x="546.782px" y="681.98px" style="font-family:'Helvetica';font-size:17px;fill:rgb(217,95,2);fill-opacity:0.811765;">r</text>
        <text x="552.243px" y="681.98px" style="font-family:'Helvetica';font-size:17px;fill:rgb(217,95,2);fill-opacity:0.811765;">ation</text>
    </g>
    <g transform="matrix(1,0,0,1,4.21797,5.34477)">
        <text x="269.85px" y="415.55px" style="font-family:'Helvetica';font-size:18px;fill:rgb(27,158,119);fill-opacity:0.870588;">Ren</text>
        <text x="302.871px" y="415.55px" style="font-family:'Helvetica';font-size:18px;fill:rgb(27,158,119);fill-opacity:0.870588;">e</text>
        <text x="312.531px" y="415.55px" style="font-family:'Helvetica';font-size:18px;fill:rgb(27,158,119);fill-opacity:0.870588;">w</text>
        <text x="325.23px" y="415.55px" style="font-family:'Helvetica';font-size:18px;fill:rgb(27,158,119);fill-opacity:0.870588;">a</text>
        <text x="335.241px" y="415.55px" style="font-family:'Helvetica';font-size:18px;fill:rgb(27,158,119);fill-opacity:0.870588;">b</text>
        <text x="344.902px" y="415.55px" style="font-family:'Helvetica';font-size:18px;fill:rgb(27,158,119);fill-opacity:0.870588;">le energy</text>
    </g>
    <g transform="matrix(1,0,0,1,37.6899,1.65887)">
        <text x="340.84px" y="633.99px" style="font-family:'Helvetica';font-size:14px;fill:rgb(217,95,2);fill-opacity:0.509804;">V</text>
        <text x="349.078px" y="633.99px" style="font-family:'Helvetica';font-size:14px;fill:rgb(217,95,2);fill-opacity:0.509804;">egetation (g)</text>
    </g>
    <g transform="matrix(1,0,0,1,-10.0881,-4.05145)">
        <text x="400.67px" y="476.42px" style="font-family:'Helvetica';font-size:18px;fill:rgb(217,95,2);fill-opacity:0.933333;">V</text>
        <text x="411.226px" y="476.42px" style="font-family:'Helvetica';font-size:18px;fill:rgb(217,95,2);fill-opacity:0.933333;">egetation (l)</text>
    </g>
    <g transform="matrix(1,0,0,1,3.36813,-1.37344)">
        <text x="661.13px" y="417.87px" style="font-family:'Helvetica';font-size:16px;">B</text>
    </g>
    <clipPath id="_clip3">
        <rect x="25.97" y="399.02" width="655.2" height="363.99"/>
    </clipPath>
    <g clip-path="url(#_clip3)">
        <rect x="25.97" y="399.02" width="655.2" height="363.99" style="fill:none;stroke:black;stroke-width:1.07px;"/>
    </g>
    <g transform="matrix(1,0,0,1,0,-2)">
        <text x="307.77px" y="786.45px" style="font-family:'Helvetica';font-size:16px;">PC1 (41.2%)</text>
    </g>
    <g transform="matrix(0,-1,1,0,2,0)">
        <text x="-626.81px" y="11.49px" style="font-family:'Helvetica';font-size:16px;">PC2 (23.6%)</text>
    </g>
    <g transform="matrix(1,0,0,1,0,1)">
        <g transform="matrix(1,0,0,1,334.264,13.0729)">
            <text x="0px" y="0px" style="font-family:'Helvetica';font-size:9px;fill-opacity:0.301961;">a</text>
        </g>
        <rect x="456.74" y="2.1" width="17.56" height="17.56" style="fill:white;fill-rule:nonzero;"/>
        <g transform="matrix(1,0,0,1,3,-1.60887)">
            <text x="371.4px" y="15.9px" style="font-family:'Helvetica';font-size:14px;fill-opacity:0.494118;">a</text>
        </g>
        <g transform="matrix(1,0,0,1,3,-1.84156)">
            <text x="415.11px" y="16.62px" style="font-family:'Helvetica';font-size:16px;fill-opacity:0.690196;">a</text>
        </g>
        <g transform="matrix(1,0,0,1,3,-2.07426)">
            <text x="460.52px" y="17.34px" style="font-family:'Helvetica';font-size:18px;fill-opacity:0.882353;">a</text>
        </g>
    </g>
</svg>
