<?xml version="1.0" encoding="UTF-8" standalone="no"?>
<!DOCTYPE svg PUBLIC "-//W3C//DTD SVG 1.1//EN" "http://www.w3.org/Graphics/SVG/1.1/DTD/svg11.dtd">
<svg width="100%" height="100%" viewBox="0 0 370 410" version="1.1" xmlns="http://www.w3.org/2000/svg" xmlns:xlink="http://www.w3.org/1999/xlink" xml:space="preserve" style="fill-rule:evenodd;clip-rule:evenodd;">
    <g transform="matrix(1.00518,0,0,0.804729,-0.27,-0.604753)">
        <rect x="0" y="0" width="368.5" height="510.24" style="fill:white;"/>
    </g>
    <g transform="matrix(1,0,0,1,8.89566,-8.37672)">
        <text x="3.562px" y="211.419px" style="font-family:'ArialMT', 'Arial', sans-serif;font-size:7.2px;fill:none;">MW</text>
        <text x="3.562px" y="211.419px" style="font-family:'ArialMT', 'Arial', sans-serif;font-size:7.2px;fill:rgb(0,176,246);">MW</text>
    </g>
    <g transform="matrix(1,0,0,1,0.75,-8.24)">
        <g transform="matrix(1,0,0,3.68398,0,-899.583)">
            <path d="M42.27,325.22L42.27,248.39" style="fill-rule:nonzero;stroke:rgb(229,229,229);stroke-width:0.19px;stroke-dasharray:0.37,0.37,0,0;"/>
        </g>
        <g transform="matrix(1,0,0,3.68398,0,-899.583)">
            <path d="M85.56,325.22L85.56,248.39" style="fill-rule:nonzero;stroke:rgb(229,229,229);stroke-width:0.19px;stroke-dasharray:0.37,0.37,0,0;"/>
        </g>
        <g transform="matrix(1,0,0,3.68446,0,-1.02637)">
            <path d="M137.5,81.3L137.5,4.48" style="fill-rule:nonzero;stroke:rgb(229,229,229);stroke-width:0.19px;stroke-dasharray:0.37,0.37,0,0;"/>
        </g>
        <g transform="matrix(1,0,0,3.68446,0,-1.02637)">
            <path d="M141.83,81.3L141.83,4.48" style="fill-rule:nonzero;stroke:rgb(229,229,229);stroke-width:0.19px;stroke-dasharray:0.37,0.37,0,0;"/>
        </g>
        <g transform="matrix(1,0,0,3.68446,0,-1.02637)">
            <path d="M150.49,81.3L150.49,4.48" style="fill-rule:nonzero;stroke:rgb(229,229,229);stroke-width:0.19px;stroke-dasharray:0.37,0.37,0,0;"/>
        </g>
        <g transform="matrix(1,0,0,3.68446,0,-1.02637)">
            <path d="M180.79,81.3L180.79,4.48" style="fill-rule:nonzero;stroke:rgb(229,229,229);stroke-width:0.19px;stroke-dasharray:0.37,0.37,0,0;"/>
        </g>
        <g transform="matrix(1,0,0,3.68446,0,-1.02637)">
            <path d="M219.75,81.3L219.75,4.48" style="fill-rule:nonzero;stroke:rgb(229,229,229);stroke-width:0.19px;stroke-dasharray:0.37,0.37,0,0;"/>
        </g>
        <g transform="matrix(1,0,0,3.68446,0,-1.02637)">
            <path d="M224.08,81.3L224.08,4.48" style="fill-rule:nonzero;stroke:rgb(229,229,229);stroke-width:0.19px;stroke-dasharray:0.37,0.37,0,0;"/>
        </g>
        <g transform="matrix(1,0,0,3.68446,0,-1.02637)">
            <path d="M241.4,81.3L241.4,4.48" style="fill-rule:nonzero;stroke:rgb(229,229,229);stroke-width:0.19px;stroke-dasharray:0.37,0.37,0,0;"/>
        </g>
        <g transform="matrix(1,0,0,3.68446,0,-1.02637)">
            <path d="M258.71,81.3L258.71,4.48" style="fill-rule:nonzero;stroke:rgb(229,229,229);stroke-width:0.19px;stroke-dasharray:0.37,0.37,0,0;"/>
        </g>
        <g transform="matrix(1,0,0,3.68446,0,-1.02637)">
            <path d="M302,81.3L302,4.48" style="fill-rule:nonzero;stroke:rgb(229,229,229);stroke-width:0.19px;stroke-dasharray:0.37,0.37,0,0;"/>
        </g>
        <g transform="matrix(1,0,0,3.68446,0,-1.02637)">
            <path d="M323.65,81.3L323.65,4.48" style="fill-rule:nonzero;stroke:rgb(229,229,229);stroke-width:0.19px;stroke-dasharray:0.37,0.37,0,0;"/>
        </g>
    </g>
    <g transform="matrix(1,0,0,1,0.75,-38.24)">
        <path d="M250.06,321.72L254.39,321.72L258.71,321.18L263.04,321.18L267.37,320.23L271.7,318.82L276.03,318.67L280.36,318.34L284.69,317.66L289.02,316.51L293.35,314.57L297.67,311.9L302,307.07L306.33,301.74L310.66,295.43L314.99,287.51L319.32,279.37L323.65,262.65L327.98,251.89" style="fill:none;stroke:rgb(0,176,246);stroke-width:1.07px;"/>
    </g>
    <g transform="matrix(1,0,0,1,0.75,-38.24)">
        <path d="M27.98,325.22L27.98,248.39" style="fill:none;stroke:rgb(0,176,246);stroke-width:1px;"/>
    </g>
    <g transform="matrix(1,0,0,1,21.2472,285.99)">
        <text x="0px" y="0px" style="font-family:'ArialMT', 'Arial', sans-serif;font-size:7.2px;fill:none;">0</text>
        <text x="0px" y="0px" style="font-family:'ArialMT', 'Arial', sans-serif;font-size:7.2px;fill:rgb(0,176,246);">0</text>
    </g>
    <g transform="matrix(1,0,0,1,9.2343,261.72)">
        <text x="0px" y="0px" style="font-family:'ArialMT', 'Arial', sans-serif;font-size:7.2px;fill:none;">5000</text>
        <text x="0px" y="0px" style="font-family:'ArialMT', 'Arial', sans-serif;font-size:7.2px;fill:rgb(0,176,246);">5000</text>
    </g>
    <g transform="matrix(1,0,0,1,5.23,237.44)">
        <text x="0px" y="0px" style="font-family:'ArialMT', 'Arial', sans-serif;font-size:7.2px;fill:none;">10000</text>
        <text x="0px" y="0px" style="font-family:'ArialMT', 'Arial', sans-serif;font-size:7.2px;fill:rgb(0,176,246);">10000</text>
    </g>
    <g transform="matrix(1,0,0,1,5.23,213.16)">
        <text x="0px" y="0px" style="font-family:'ArialMT', 'Arial', sans-serif;font-size:7.2px;fill:none;">15000</text>
        <text x="0px" y="0px" style="font-family:'ArialMT', 'Arial', sans-serif;font-size:7.2px;fill:rgb(0,176,246);">15000</text>
    </g>
    <g transform="matrix(1,0,0,1,0.75,-38.24)">
        <path d="M25.74,321.72L27.98,321.72" style="fill:none;stroke:rgb(0,176,246);stroke-width:1px;"/>
    </g>
    <g transform="matrix(1,0,0,1,0.75,-38.24)">
        <path d="M25.74,297.45L27.98,297.45" style="fill:none;stroke:rgb(0,176,246);stroke-width:1px;"/>
    </g>
    <g transform="matrix(1,0,0,1,0.75,-38.24)">
        <path d="M25.74,273.17L27.98,273.17" style="fill:none;stroke:rgb(0,176,246);stroke-width:1px;"/>
    </g>
    <g transform="matrix(1,0,0,1,0.75,-38.24)">
        <path d="M25.74,248.9L27.98,248.9" style="fill:none;stroke:rgb(0,176,246);stroke-width:1px;"/>
    </g>
    <g transform="matrix(1,0,0,1,172.542,284.563)">
        <text x="0px" y="0px" style="font-family:'ArialMT', 'Arial', sans-serif;font-size:7.2px;fill:none;">Of<tspan x="7.471px 9.471px " y="0px 0px ">fs</tspan>hore Wind Capacity</text>
        <text x="0px" y="0px" style="font-family:'ArialMT', 'Arial', sans-serif;font-size:7.2px;fill:rgb(0,176,246);">Of<tspan x="7.471px 9.471px " y="0px 0px ">fs</tspan>hore Wind Capacity</text>
    </g>
    <g transform="matrix(1,0,0,1,346.404,64.4041)">
        <text x="0.726px" y="109.295px" style="font-family:'ArialMT', 'Arial', sans-serif;font-size:7.2px;fill:none;">km</text>
        <text x="10.324px" y="106.897px" style="font-family:'ArialMT', 'Arial', sans-serif;font-size:4.198px;fill:none;">2</text>
        <text x="0.726px" y="109.295px" style="font-family:'ArialMT', 'Arial', sans-serif;font-size:7.2px;fill:rgb(0,191,125);">km</text>
        <text x="10.324px" y="106.897px" style="font-family:'ArialMT', 'Arial', sans-serif;font-size:4.198px;fill:rgb(0,191,125);">2</text>
    </g>
    <g transform="matrix(0.819152,-0.573576,0.573576,0.819152,30.26,307.38)">
        <text x="0px" y="0px" style="font-family:'ArialMT', 'Arial', sans-serif;font-size:7.2px;fill:rgb(77,77,77);">1950</text>
    </g>
    <g transform="matrix(0.819152,-0.573576,0.573576,0.819152,73.55,307.289)">
        <text x="0px" y="0px" style="font-family:'ArialMT', 'Arial', sans-serif;font-size:7.2px;fill:rgb(77,77,77);">1960</text>
    </g>
    <g transform="matrix(0.819152,-0.573576,0.573576,0.819152,58.67,352.588)">
        <text x="0px" y="0px" style="font-family:'Arial-BoldMT', 'Arial', sans-serif;font-weight:700;font-size:7.2px;fill:rgb(77,77,77);">1972</text>
        <text x="18.018px" y="0px" style="font-family:'ArialMT', 'Arial', sans-serif;font-size:7.2px;fill:rgb(77,77,77);">- London Convention</text>
    </g>
    <g transform="matrix(0.819152,-0.573576,0.573576,0.819152,62.27,358.56)">
        <text x="0px" y="0px" style="font-family:'Arial-BoldMT', 'Arial', sans-serif;font-weight:700;font-size:7.2px;fill:rgb(77,77,77);">1972</text>
        <text x="18.018px" y="0px" style="font-family:'ArialMT', 'Arial', sans-serif;font-size:7.2px;fill:rgb(77,77,77);">- RAMSAR Convention</text>
    </g>
    <g transform="matrix(1,0,0,1,1.75,-162.24)">
        <g transform="matrix(0.819152,-0.573576,0.573576,0.819152,68.21,527.26)">
            <text x="0px" y="0px" style="font-family:'Arial-BoldMT', 'Arial', sans-serif;font-weight:700;font-size:7.2px;fill:rgb(77,77,77);">1973</text>
            <text x="18.018px" y="0px" style="font-family:'ArialMT', 'Arial', sans-serif;font-size:7.2px;fill:rgb(77,77,77);">- UN Convention on</text>
        </g>
        <g transform="matrix(0.819152,-0.573576,0.573576,0.819152,60.25,542.33)">
            <text x="0px" y="0px" style="font-family:'ArialMT', 'Arial', sans-serif;font-size:7.2px;fill:rgb(77,77,77);">the Law of the Sea (UNCLOS)</text>
        </g>
    </g>
    <g transform="matrix(1,0,0,1,-2.25,-133.24)">
        <g transform="matrix(0.819152,-0.573576,0.573576,0.819152,82.28,513.98)">
            <text x="0px" y="0px" style="font-family:'Arial-BoldMT', 'Arial', sans-serif;font-weight:700;font-size:7.2px;fill:rgb(77,77,77);">1975</text>
            <text x="18.018px" y="0px" style="font-family:'ArialMT', 'Arial', sans-serif;font-size:7.2px;fill:rgb(77,77,77);">- Convention on</text>
        </g>
        <g transform="matrix(0.819152,-0.573576,0.573576,0.819152,87.38,519.9)">
            <text x="0px" y="0px" style="font-family:'ArialMT', 'Arial', sans-serif;font-size:7.2px;fill:rgb(77,77,77);">International <tspan x="41.498px 45.629px 48.027px " y="0px 0px 0px ">Tra</tspan>de in</text>
        </g>
        <g transform="matrix(0.819152,-0.573576,0.573576,0.819152,73.68,538.99)">
            <text x="0px" y="0px" style="font-family:'ArialMT', 'Arial', sans-serif;font-size:7.2px;fill:rgb(77,77,77);">Endangered Species of Wild</text>
        </g>
        <g transform="matrix(0.819152,-0.573576,0.573576,0.819152,86.12,539.77)">
            <text x="0px" y="0px" style="font-family:'ArialMT', 'Arial', sans-serif;font-size:7.2px;fill:rgb(77,77,77);">Fauna and Flora (CITES)</text>
        </g>
    </g>
    <g transform="matrix(0.819152,-0.573576,0.573576,0.819152,159.5,341.07)">
        <text x="0px" y="0px" style="font-family:'Arial-BoldMT', 'Arial', sans-serif;font-weight:700;font-size:7.2px;fill:rgb(77,77,77);">1991</text>
        <text x="18.018px" y="0px" style="font-family:'ArialMT', 'Arial', sans-serif;font-size:7.2px;fill:rgb(77,77,77);">- Madrid Protocol</text>
    </g>
    <g transform="matrix(1,0,0,1,-2.25,-32.24)">
        <g transform="matrix(0.819152,-0.573576,0.573576,0.819152,154.92,425.63)">
            <text x="0px" y="0px" style="font-family:'Arial-BoldMT', 'Arial', sans-serif;font-weight:700;font-size:7.2px;fill:rgb(77,77,77);">1992</text>
            <text x="18.018px" y="0px" style="font-family:'ArialMT', 'Arial', sans-serif;font-size:7.2px;fill:rgb(77,77,77);">- UN Convention on</text>
        </g>
        <g transform="matrix(0.819152,-0.573576,0.573576,0.819152,158.45,432.65)">
            <text x="0px" y="0px" style="font-family:'ArialMT', 'Arial', sans-serif;font-size:7.2px;fill:rgb(77,77,77);">Biological Diversity (CBD)</text>
        </g>
    </g>
    <g transform="matrix(1,0,0,1,-2.25,-160.24)">
        <g transform="matrix(0.819152,-0.573576,0.573576,0.819152,132.62,549.24)">
            <text x="0px" y="0px" style="font-family:'Arial-BoldMT', 'Arial', sans-serif;font-weight:700;font-size:7.2px;fill:rgb(77,77,77);">1992</text>
            <text x="18.018px" y="0px" style="font-family:'ArialMT', 'Arial', sans-serif;font-size:7.2px;fill:rgb(77,77,77);">- UN Framework Convention</text>
        </g>
        <g transform="matrix(0.819152,-0.573576,0.573576,0.819152,145.38,549.8)">
            <text x="0px" y="0px" style="font-family:'ArialMT', 'Arial', sans-serif;font-size:7.2px;fill:rgb(77,77,77);">on Climate Change (UNFCCC)</text>
        </g>
    </g>
    <g transform="matrix(0.819152,-0.573576,0.573576,0.819152,179.53,402.19)">
        <text x="0px" y="0px" style="font-family:'Arial-BoldMT', 'Arial', sans-serif;font-weight:700;font-size:7.2px;fill:rgb(77,77,77);">1996</text>
        <text x="18.018px" y="0px" style="font-family:'ArialMT', 'Arial', sans-serif;font-size:7.2px;fill:rgb(77,77,77);">- London Protocol</text>
    </g>
    <g transform="matrix(0.819152,-0.573576,0.573576,0.819152,246.71,307.38)">
        <text x="0px" y="0px" style="font-family:'ArialMT', 'Arial', sans-serif;font-size:7.2px;fill:rgb(77,77,77);">2000</text>
    </g>
    <g transform="matrix(0.819152,-0.573576,0.573576,0.819152,227.92,346.65)">
        <text x="69.086px" y="0px" style="font-family:'Arial-BoldMT', 'Arial', sans-serif;font-weight:700;font-size:7.2px;fill:rgb(77,77,77);">2010</text>
        <text x="22.018px" y="7.2px" style="font-family:'ArialMT', 'Arial', sans-serif;font-size:7.2px;fill:rgb(77,77,77);">Aichi <tspan x="39.495px 43.095px 47.099px " y="7.2px 7.2px 7.2px ">Tar</tspan>gets (CBD)</text>
    </g>
    <g transform="matrix(0.819152,-0.573576,0.573576,0.819152,249.528,363.546)">
        <text x="10.195px" y="0px" style="font-family:'Arial-BoldMT', 'Arial', sans-serif;font-weight:700;font-size:7.2px;fill:rgb(77,77,77);">2015</text>
        <text x="28.213px" y="0px" style="font-family:'ArialMT', 'Arial', sans-serif;font-size:7.2px;fill:rgb(77,77,77);">- UN Sustainable</text>
        <text x="-6.195px" y="7.2px" style="font-family:'ArialMT', 'Arial', sans-serif;font-size:7.2px;fill:rgb(77,77,77);">Development Goals (SDGs,</text>
        <text x="-6.195px" y="14.4px" style="font-family:'ArialMT', 'Arial', sans-serif;font-size:7.2px;fill:rgb(77,77,77);">with SDG14 on the Ocean)</text>
    </g>
    <g transform="matrix(0.819152,-0.573576,0.573576,0.819152,259.674,384.451)">
        <g>
            <g>
                <text x="15.177px" y="0px" style="font-family:'Arial-BoldMT', 'Arial', sans-serif;font-weight:700;font-size:7.2px;fill:rgb(77,77,77);">2015-2016</text>
                <text x="51.609px" y="0px" style="font-family:'ArialMT', 'Arial', sans-serif;font-size:7.2px;fill:rgb(77,77,77);">- Paris</text>
                <text x="0px" y="7.2px" style="font-family:'ArialMT', 'Arial', sans-serif;font-size:7.2px;fill:rgb(77,77,77);">Agreement (UNFCCC)</text>
            </g>
        </g>
    </g>
    <g transform="matrix(1,0,0,1.29936,0.75,-114.599)">
        <path d="M63.036,365.872L137.5,325.602L137.5,312.46" style="fill:none;stroke:rgb(229,229,229);stroke-width:0.69px;"/>
    </g>
    <g transform="matrix(1,0,0,1.29936,5.08,-114.599)">
        <path d="M58.35,382.808L137.5,340.004L137.5,312.46" style="fill:none;stroke:rgb(229,229,229);stroke-width:0.69px;"/>
    </g>
    <g transform="matrix(1,0,0,1.29936,44.04,-114.599)">
        <path d="M109.484,343.542L137.5,328.391L137.5,312.46" style="fill:none;stroke:rgb(229,229,229);stroke-width:0.69px;"/>
    </g>
    <g transform="matrix(1,0,0,1.29936,13.74,-114.599)">
        <path d="M71.972,402.986L137.5,367.548L137.5,312.46" style="fill:none;stroke:rgb(229,229,229);stroke-width:0.69px;"/>
    </g>
    <g transform="matrix(1,0,0,1.29936,83,-114.599)">
        <path d="M78.923,351.557L137.5,319.879L137.5,312.46" style="fill:none;stroke:rgb(229,229,229);stroke-width:0.69px;"/>
    </g>
    <g transform="matrix(1,0,0,1.29936,87.33,-114.599)">
        <path d="M70.588,398.662L137.5,362.476L137.5,312.46" style="fill:none;stroke:rgb(229,229,229);stroke-width:0.69px;"/>
    </g>
    <g transform="matrix(1,0,0,1.29936,104.65,-114.599)">
        <path d="M76.89,398.722L137.5,365.944L137.5,312.46" style="fill:none;stroke:rgb(229,229,229);stroke-width:0.69px;"/>
    </g>
    <g transform="matrix(1,0,0,1.29936,165.25,-114.599)">
        <path d="M86.491,351.713L137.5,324.127L137.5,312.46" style="fill:none;stroke:rgb(229,229,229);stroke-width:0.69px;"/>
    </g>
    <g transform="matrix(1,0,0,1.29936,186.9,-114.784)">
        <path d="M77.551,391.299L137.5,358.879L137.5,312.46" style="fill:none;stroke:rgb(229,229,229);stroke-width:0.69px;"/>
    </g>
    <g transform="matrix(1,0,0,1,0.75,-221.506)">
        <path d="M258.71,403.03L263.04,397.88L267.37,392.85L271.7,387.93L276.03,383.12L280.36,378.41L284.69,373.82L289.02,369.32L293.35,364.93L297.67,360.64L302,356.44L306.33,352.34L310.66,348.33L314.99,344.41L319.32,340.59L323.65,336.85L327.98,333.19" style="fill:none;stroke:rgb(231,107,243);stroke-width:1.07px;"/>
    </g>
    <g transform="matrix(1,0,0,1,0.75,-221.506)">
        <path d="M27.98,406.52L27.98,329.7" style="fill:none;stroke:rgb(231,107,243);stroke-width:1px;"/>
    </g>
    <g transform="matrix(1,0,0,1,21.2472,184.034)">
        <text x="0px" y="0px" style="font-family:'ArialMT', 'Arial', sans-serif;font-size:7.2px;fill:none;">0</text>
        <text x="0px" y="0px" style="font-family:'ArialMT', 'Arial', sans-serif;font-size:7.2px;fill:rgb(231,107,243);">0</text>
    </g>
    <g transform="matrix(1,0,0,1,5.23,164.464)">
        <text x="0px" y="0px" style="font-family:'ArialMT', 'Arial', sans-serif;font-size:7.2px;fill:none;">10000</text>
        <text x="0px" y="0px" style="font-family:'ArialMT', 'Arial', sans-serif;font-size:7.2px;fill:rgb(231,107,243);">10000</text>
    </g>
    <g transform="matrix(1,0,0,1,5.23,144.904)">
        <text x="0px" y="0px" style="font-family:'ArialMT', 'Arial', sans-serif;font-size:7.2px;fill:none;">20000</text>
        <text x="0px" y="0px" style="font-family:'ArialMT', 'Arial', sans-serif;font-size:7.2px;fill:rgb(231,107,243);">20000</text>
    </g>
    <g transform="matrix(1,0,0,1,5.23,125.344)">
        <text x="0px" y="0px" style="font-family:'ArialMT', 'Arial', sans-serif;font-size:7.2px;fill:none;">30000</text>
        <text x="0px" y="0px" style="font-family:'ArialMT', 'Arial', sans-serif;font-size:7.2px;fill:rgb(231,107,243);">30000</text>
    </g>
    <g transform="matrix(1,0,0,1,13.3193,113.609)">
        <text x="0px" y="0px" style="font-family:'ArialMT', 'Arial', sans-serif;font-size:7.2px;fill:none;">km</text>
        <text x="9.598px" y="-2.398px" style="font-family:'ArialMT', 'Arial', sans-serif;font-size:4.198px;fill:none;">2</text>
        <text x="0px" y="0px" style="font-family:'ArialMT', 'Arial', sans-serif;font-size:7.2px;fill:rgb(231,107,243);">km</text>
        <text x="9.598px" y="-2.398px" style="font-family:'ArialMT', 'Arial', sans-serif;font-size:4.198px;fill:rgb(231,107,243);">2</text>
    </g>
    <g transform="matrix(1,0,0,1,0.75,-221.506)">
        <path d="M25.74,403.03L27.98,403.03" style="fill:none;stroke:rgb(231,107,243);stroke-width:1px;"/>
    </g>
    <g transform="matrix(1,0,0,1,0.75,-221.506)">
        <path d="M25.74,383.46L27.98,383.46" style="fill:none;stroke:rgb(231,107,243);stroke-width:1px;"/>
    </g>
    <g transform="matrix(1,0,0,1,0.75,-221.506)">
        <path d="M25.74,363.9L27.98,363.9" style="fill:none;stroke:rgb(231,107,243);stroke-width:1px;"/>
    </g>
    <g transform="matrix(1,0,0,1,0.75,-221.506)">
        <path d="M25.74,344.34L27.98,344.34" style="fill:none;stroke:rgb(231,107,243);stroke-width:1px;"/>
    </g>
    <g transform="matrix(1,0,0,1,168.629,178.936)">
        <text x="0px" y="0px" style="font-family:'ArialMT', 'Arial', sans-serif;font-size:7.2px;fill:none;">A<tspan x="4.672px 8.272px " y="0px 0px ">vo</tspan>ided Loss of Mangroves</text>
        <text x="0px" y="0px" style="font-family:'ArialMT', 'Arial', sans-serif;font-size:7.2px;fill:rgb(231,107,243);">A<tspan x="4.672px 8.272px " y="0px 0px ">vo</tspan>ided Loss of Mangroves</text>
    </g>
    <g transform="matrix(1,0,0,1,0.75,11.4833)">
        <path d="M228.41,240.42L232.74,240.42L237.07,234.95L250.06,234.95L254.39,231.16L258.71,227.36L263.04,221.29L267.37,181.29L271.7,181.29L276.03,173.62L293.35,173.62L297.67,170.58L327.98,170.58" style="fill:none;stroke:rgb(0,191,125);stroke-width:1.07px;"/>
    </g>
    <g transform="matrix(-1,0,0,1,371.71,11.4833)">
        <path d="M27.98,243.91L27.98,167.09" style="fill:none;stroke:rgb(0,191,125);stroke-width:1px;"/>
    </g>
    <g transform="matrix(1,0,0,1,347.13,240.293)">
        <text x="0px" y="0px" style="font-family:'ArialMT', 'Arial', sans-serif;font-size:7.2px;fill:none;">250</text>
        <text x="0px" y="0px" style="font-family:'ArialMT', 'Arial', sans-serif;font-size:7.2px;fill:rgb(0,191,125);">250</text>
    </g>
    <g transform="matrix(1,0,0,1,347.13,221.313)">
        <text x="0px" y="0px" style="font-family:'ArialMT', 'Arial', sans-serif;font-size:7.2px;fill:none;">500</text>
        <text x="0px" y="0px" style="font-family:'ArialMT', 'Arial', sans-serif;font-size:7.2px;fill:rgb(0,191,125);">500</text>
    </g>
    <g transform="matrix(1,0,0,1,347.13,202.333)">
        <text x="0px" y="0px" style="font-family:'ArialMT', 'Arial', sans-serif;font-size:7.2px;fill:none;">750</text>
        <text x="0px" y="0px" style="font-family:'ArialMT', 'Arial', sans-serif;font-size:7.2px;fill:rgb(0,191,125);">750</text>
    </g>
    <g transform="matrix(1,0,0,1,347.13,183.363)">
        <text x="0px" y="0px" style="font-family:'ArialMT', 'Arial', sans-serif;font-size:7.2px;fill:none;">1000</text>
        <text x="0px" y="0px" style="font-family:'ArialMT', 'Arial', sans-serif;font-size:7.2px;fill:rgb(0,191,125);">1000</text>
    </g>
    <g transform="matrix(-1,0,0,1,371.71,11.4833)">
        <path d="M25.74,226.3L27.98,226.3" style="fill:none;stroke:rgb(0,191,125);stroke-width:1px;"/>
    </g>
    <g transform="matrix(-1,0,0,1,371.71,11.4833)">
        <path d="M25.74,207.32L27.98,207.32" style="fill:none;stroke:rgb(0,191,125);stroke-width:1px;"/>
    </g>
    <g transform="matrix(-1,0,0,1,371.71,11.4833)">
        <path d="M25.74,188.35L27.98,188.35" style="fill:none;stroke:rgb(0,191,125);stroke-width:1px;"/>
    </g>
    <g transform="matrix(-1,0,0,1,371.71,11.4833)">
        <path d="M25.74,169.37L27.98,169.37" style="fill:none;stroke:rgb(0,191,125);stroke-width:1px;"/>
    </g>
    <g transform="matrix(1,0,0,1,166.86,253.719)">
        <text x="0px" y="0px" style="font-family:'ArialMT', 'Arial', sans-serif;font-size:7.2px;fill:none;">Iron Fertilized Exp.</text>
        <text x="0px" y="0px" style="font-family:'ArialMT', 'Arial', sans-serif;font-size:7.2px;fill:rgb(0,191,125);">Iron Fertilized Exp.</text>
    </g>
    <g transform="matrix(1,0,0,1,0.75,-31.4455)">
        <path d="M85.56,159.12L89.89,159.07L94.22,159.06L98.54,159.04L102.87,159.04L107.2,159.03L111.53,159.01L115.86,159L120.19,158.98L124.52,158.97L128.85,158.95L133.18,158.91L137.5,158.86L141.83,158.5L146.16,157.88L150.49,157.83L154.82,157.68L159.15,157.62L163.48,157.51L167.81,157.4L172.14,156.58L176.47,156.51L180.79,156.48L185.12,156.4L189.45,156.33L193.78,156.18L198.11,154.99L202.44,154.94L206.77,154.78L211.1,154.72L215.43,152.05L219.75,151.93L224.08,151.44L228.41,151.04L232.74,150.7L237.07,150.61L241.4,150.36L245.73,147.99L250.06,147.71L254.39,146.79L258.71,146.18L263.04,146.04L267.37,141.23L271.7,141.12L276.03,139.24L280.36,139.02L284.69,136.61L289.02,129.43L293.35,129.33L297.67,126.09L302,120.45L306.33,120.3L310.66,102.79L314.99,100.9L319.32,89.28" style="fill:none;stroke:rgb(163,165,0);stroke-width:1.07px;"/>
    </g>
    <g transform="matrix(-1,0,0,1,371.71,-31.4455)">
        <path d="M27.98,162.61L27.98,85.79" style="fill:none;stroke:rgb(163,165,0);stroke-width:1px;"/>
    </g>
    <g transform="matrix(1,0,0,1,347.13,130.944)">
        <text x="0px" y="0px" style="font-family:'ArialMT', 'Arial', sans-serif;font-size:7.2px;fill:none;">0</text>
        <text x="0px" y="0px" style="font-family:'ArialMT', 'Arial', sans-serif;font-size:7.2px;fill:rgb(163,165,0);">0</text>
    </g>
    <g transform="matrix(1,0,0,1,347.13,112.894)">
        <text x="0px" y="0px" style="font-family:'ArialMT', 'Arial', sans-serif;font-size:7.2px;fill:none;">1</text>
        <text x="0px" y="0px" style="font-family:'ArialMT', 'Arial', sans-serif;font-size:7.2px;fill:rgb(163,165,0);">1</text>
    </g>
    <g transform="matrix(1,0,0,1,347.13,94.8445)">
        <text x="0px" y="0px" style="font-family:'ArialMT', 'Arial', sans-serif;font-size:7.2px;fill:none;">2</text>
        <text x="0px" y="0px" style="font-family:'ArialMT', 'Arial', sans-serif;font-size:7.2px;fill:rgb(163,165,0);">2</text>
    </g>
    <g transform="matrix(1,0,0,1,347.13,76.7945)">
        <text x="0px" y="0px" style="font-family:'ArialMT', 'Arial', sans-serif;font-size:7.2px;fill:none;">3</text>
        <text x="0px" y="0px" style="font-family:'ArialMT', 'Arial', sans-serif;font-size:7.2px;fill:rgb(163,165,0);">3</text>
    </g>
    <g transform="matrix(1,0,0,1,347.13,58.7445)">
        <text x="0px" y="0px" style="font-family:'ArialMT', 'Arial', sans-serif;font-size:7.2px;fill:none;">4 %</text>
        <text x="0px" y="0px" style="font-family:'ArialMT', 'Arial', sans-serif;font-size:7.2px;fill:rgb(163,165,0);">4 %</text>
    </g>
    <g transform="matrix(-1,0,0,1,371.71,-31.4455)">
        <path d="M25.74,159.88L27.98,159.88" style="fill:none;stroke:rgb(163,165,0);stroke-width:1px;"/>
    </g>
    <g transform="matrix(-1,0,0,1,371.71,-31.4455)">
        <path d="M25.74,141.83L27.98,141.83" style="fill:none;stroke:rgb(163,165,0);stroke-width:1px;"/>
    </g>
    <g transform="matrix(-1,0,0,1,371.71,-31.4455)">
        <path d="M25.74,123.78L27.98,123.78" style="fill:none;stroke:rgb(163,165,0);stroke-width:1px;"/>
    </g>
    <g transform="matrix(-1,0,0,1,371.71,-31.4455)">
        <path d="M25.74,105.73L27.98,105.73" style="fill:none;stroke:rgb(163,165,0);stroke-width:1px;"/>
    </g>
    <g transform="matrix(-1,0,0,1,371.71,-31.4455)">
        <path d="M25.74,87.69L27.98,87.69" style="fill:none;stroke:rgb(163,165,0);stroke-width:1px;"/>
    </g>
    <g transform="matrix(1,0,0,1,87.9627,121.704)">
        <text x="0px" y="0px" style="font-family:'ArialMT', 'Arial', sans-serif;font-size:7.2px;fill:none;">Marine Protected <tspan x="56.429px 61.232px " y="0px 0px ">Ar</tspan>eas</text>
        <text x="0px" y="0px" style="font-family:'ArialMT', 'Arial', sans-serif;font-size:7.2px;fill:rgb(163,165,0);">Marine Protected <tspan x="56.429px 61.232px " y="0px 0px ">Ar</tspan>eas</text>
    </g>
    <g transform="matrix(1,0,0,1,0.75,2.76)">
        <path d="M42.27,77.81L68.24,77.81L72.57,77.15L76.9,77.81L98.54,77.81L102.87,77.15L111.53,77.15L115.86,76.48L120.19,76.48L124.52,77.15L137.5,77.15L141.83,76.48L146.16,75.81L150.49,77.15L154.82,75.24L159.15,72.57L163.48,73.33L167.81,72L172.14,72.67L180.79,72.67L185.12,71.43L189.45,69.52L193.78,70.76L198.11,68.95L202.44,67.71L206.77,65.81L211.1,65.14L215.43,64L219.75,64.66L224.08,62.66L228.41,62.09L232.74,60.28L237.07,61.52L241.4,60.95L245.73,59.04L250.06,55.99L254.39,55.42L258.71,53.71L263.04,48.18L267.37,48.94L271.7,48.37L276.03,47.7L280.36,47.9L284.69,40.37L289.02,37.42L293.35,37.89L297.67,29.89L302,26.17L306.33,20.93L310.66,12.17L314.99,16.55L319.32,7.98" style="fill:none;stroke:rgb(248,118,109);stroke-width:1.07px;"/>
    </g>
    <g transform="matrix(1,0,0,1,0.75,2.76)">
        <path d="M27.98,81.3L27.98,4.48" style="fill:rgb(243,94,90);fill-rule:nonzero;stroke:rgb(248,118,109);stroke-width:1px;"/>
    </g>
    <g transform="matrix(1,0,0,1,21.2472,83.08)">
        <text x="0px" y="0px" style="font-family:'ArialMT', 'Arial', sans-serif;font-size:7.2px;fill:rgb(243,94,90);">0</text>
    </g>
    <g transform="matrix(1,0,0,1,21.2472,64.02)">
        <text x="0px" y="0px" style="font-family:'ArialMT', 'Arial', sans-serif;font-size:7.2px;fill:rgb(243,94,90);">2</text>
    </g>
    <g transform="matrix(1,0,0,1,21.2472,44.97)">
        <text x="0px" y="0px" style="font-family:'ArialMT', 'Arial', sans-serif;font-size:7.2px;fill:rgb(243,94,90);">4</text>
    </g>
    <g transform="matrix(1,0,0,1,12.8448,25.91)">
        <text x="0px" y="0px" style="font-family:'ArialMT', 'Arial', sans-serif;font-size:7.2px;fill:rgb(243,94,90);">% 6</text>
    </g>
    <g transform="matrix(1,0,0,1,0.75,2.76)">
        <path d="M25.74,77.81L27.98,77.81" style="fill:rgb(243,94,90);fill-rule:nonzero;stroke:rgb(248,118,109);stroke-width:1px;"/>
    </g>
    <g transform="matrix(1,0,0,1,0.75,2.76)">
        <path d="M25.74,58.76L27.98,58.76" style="fill:rgb(243,94,90);fill-rule:nonzero;stroke:rgb(248,118,109);stroke-width:1px;"/>
    </g>
    <g transform="matrix(1,0,0,1,0.75,2.76)">
        <path d="M25.74,39.7L27.98,39.7" style="fill:rgb(243,94,90);fill-rule:nonzero;stroke:rgb(248,118,109);stroke-width:1px;"/>
    </g>
    <g transform="matrix(1,0,0,1,0.75,2.76)">
        <path d="M25.74,20.65L27.98,20.65" style="fill:rgb(243,94,90);fill-rule:nonzero;stroke:rgb(248,118,109);stroke-width:1px;"/>
    </g>
    <g transform="matrix(1,0,0,1,44.454,76.3898)">
        <text x="0px" y="0px" style="font-family:'ArialMT', 'Arial', sans-serif;font-size:7.2px;fill:none;">Rebuilding Fish Stocks</text>
        <text x="0px" y="0px" style="font-family:'ArialMT', 'Arial', sans-serif;font-size:7.2px;fill:rgb(248,118,109);">Rebuilding Fish Stocks</text>
    </g>
    <g transform="matrix(0.819152,-0.573576,0.573576,0.819152,100.456,349.305)">
        <text x="71.22px" y="0px" style="font-family:'Arial-BoldMT', 'Arial', sans-serif;font-weight:700;font-size:7.2px;fill:rgb(77,77,77);">1982</text>
        <text x="57.231px" y="7.2px" style="font-family:'ArialMT', 'Arial', sans-serif;font-size:7.2px;fill:rgb(77,77,77);">UNCLOS</text>
        <text x="54.422px" y="14.4px" style="font-family:'ArialMT', 'Arial', sans-serif;font-size:7.2px;fill:rgb(77,77,77);">ratiﬁcation</text>
    </g>
    <g transform="matrix(1,0,0,1,0.75,-116.24)">
        <path d="M27.98,406.52L342.26,406.52" style="fill-rule:nonzero;stroke:black;stroke-width:1.07px;"/>
    </g>
    <g transform="matrix(1,0,0,1,0.75,-116.24)">
        <path d="M42.27,408.76L42.27,406.52" style="fill-rule:nonzero;stroke:rgb(51,51,51);stroke-width:1.07px;"/>
    </g>
    <g transform="matrix(1,0,0,1,0.75,-116.24)">
        <path d="M85.56,408.76L85.56,406.52" style="fill-rule:nonzero;stroke:rgb(51,51,51);stroke-width:1.07px;"/>
    </g>
    <g transform="matrix(1,0,0,1,0.75,-116.24)">
        <path d="M137.5,408.76L137.5,406.52" style="fill-rule:nonzero;stroke:rgb(51,51,51);stroke-width:1.07px;"/>
    </g>
    <g transform="matrix(1,0,0,1,0.75,-116.24)">
        <path d="M137.5,408.76L137.5,406.52" style="fill-rule:nonzero;stroke:rgb(51,51,51);stroke-width:1.07px;"/>
    </g>
    <g transform="matrix(1,0,0,1,0.75,-116.24)">
        <path d="M141.83,408.76L141.83,406.52" style="fill-rule:nonzero;stroke:rgb(51,51,51);stroke-width:1.07px;"/>
    </g>
    <g transform="matrix(1,0,0,1,0.75,-116.24)">
        <path d="M150.49,408.76L150.49,406.52" style="fill-rule:nonzero;stroke:rgb(51,51,51);stroke-width:1.07px;"/>
    </g>
    <g transform="matrix(1,0,0,1,0.75,-116.24)">
        <path d="M180.79,408.76L180.79,406.52" style="fill-rule:nonzero;stroke:rgb(51,51,51);stroke-width:1.07px;"/>
    </g>
    <g transform="matrix(1,0,0,1,0.75,-116.24)">
        <path d="M219.75,408.76L219.75,406.52" style="fill-rule:nonzero;stroke:rgb(51,51,51);stroke-width:1.07px;"/>
    </g>
    <g transform="matrix(1,0,0,1,0.75,-116.24)">
        <path d="M224.08,408.76L224.08,406.52" style="fill-rule:nonzero;stroke:rgb(51,51,51);stroke-width:1.07px;"/>
    </g>
    <g transform="matrix(1,0,0,1,0.75,-116.24)">
        <path d="M224.08,408.76L224.08,406.52" style="fill-rule:nonzero;stroke:rgb(51,51,51);stroke-width:1.07px;"/>
    </g>
    <g transform="matrix(1,0,0,1,0.75,-116.24)">
        <path d="M241.4,408.76L241.4,406.52" style="fill-rule:nonzero;stroke:rgb(51,51,51);stroke-width:1.07px;"/>
    </g>
    <g transform="matrix(1,0,0,1,0.75,-116.24)">
        <path d="M258.71,408.76L258.71,406.52" style="fill-rule:nonzero;stroke:rgb(51,51,51);stroke-width:1.07px;"/>
    </g>
    <g transform="matrix(1,0,0,1,0.75,-116.24)">
        <path d="M302,408.76L302,406.52" style="fill-rule:nonzero;stroke:rgb(51,51,51);stroke-width:1.07px;"/>
    </g>
    <g transform="matrix(1,0,0,1,0.75,-116.24)">
        <path d="M323.65,408.76L323.65,406.52" style="fill-rule:nonzero;stroke:rgb(51,51,51);stroke-width:1.07px;"/>
    </g>
    <g transform="matrix(1,0,0,1,0.75,-116.24)">
        <path d="M323.65,408.76L323.65,406.52" style="fill-rule:nonzero;stroke:rgb(51,51,51);stroke-width:1.07px;"/>
    </g>
</svg>
